<?xml version="1.0" encoding="utf-8"?>
<!-- Generator: Adobe Illustrator 18.0.0, SVG Export Plug-In . SVG Version: 6.00 Build 0)  -->
<!DOCTYPE svg PUBLIC "-//W3C//DTD SVG 1.1//EN" "http://www.w3.org/Graphics/SVG/1.1/DTD/svg11.dtd">
<svg version="1.1" id="Слой_1" xmlns="http://www.w3.org/2000/svg" xmlns:xlink="http://www.w3.org/1999/xlink" x="0px" y="0px"
	 viewBox="0 0 38 38" enable-background="new 0 0 38 38" xml:space="preserve">
<g>
	<path fill-rule="evenodd" clip-rule="evenodd" fill="#2B2A28" d="M19,0c10.5,0,19,8.5,19,19c0,10.5-8.5,19-19,19
		C8.5,38,0,29.5,0,19C0,8.5,8.5,0,19,0z"/>
	<path fill="#E1E45B" d="M24.5,29.5L22,25.4h0.2v-1.1h-0.7l-0.6-2.7v-0.4h-0.1l-0.1-0.4h0.2v-1.1h-0.5c-0.4-2.5-0.8-8.7-1-10.7h0.4
		V7.8h-0.4v-1c0-0.2-0.1-0.3-0.3-0.3c-0.2,0-0.3,0.1-0.3,0.3v1h-0.4v1.1h0.4c-0.1,2-0.6,8.2-1,10.7h-0.5v1.1h0.2l-0.1,0.4h-0.1v0.4
		l-0.6,2.7h-0.7v1.1H16l-2.6,4.1h2.7v-0.3c0-1.5,1.3-2.7,2.9-2.7c1.6,0,2.9,1.2,2.9,2.7v0.3H24.5z M18.7,24.3l0.4-1.6l0.4,1.6H18.7z
		 M20,24.3l-0.6-2.5h0.9l0.6,2.5H20z M19.3,15.3h-0.5c0.1-1.1,0.2-2.1,0.3-3.1C19.1,13.1,19.2,14.2,19.3,15.3z M18.7,15.8h0.6
		c0.1,1.5,0.3,2.8,0.4,3.8h-1.5C18.5,18.7,18.6,17.3,18.7,15.8z M18,20.7h2.1l0.1,0.4h-2.3L18,20.7z M17.8,21.7h0.9l-0.6,2.5h-0.9
		L17.8,21.7z M19.1,26c-1.8,0-3.3,1.3-3.4,3h-1.1l2.2-3.5h4.6l2.2,3.5h-1C22.3,27.3,20.8,26,19.1,26z"/>
</g>
</svg>
