<?xml version="1.0" encoding="utf-8"?>
<!-- Generator: Adobe Illustrator 18.0.0, SVG Export Plug-In . SVG Version: 6.00 Build 0)  -->
<!DOCTYPE svg PUBLIC "-//W3C//DTD SVG 1.1//EN" "http://www.w3.org/Graphics/SVG/1.1/DTD/svg11.dtd">
<svg version="1.1" id="Слой_1" xmlns="http://www.w3.org/2000/svg" xmlns:xlink="http://www.w3.org/1999/xlink" x="0px" y="0px"
	 viewBox="0 0 38 38" enable-background="new 0 0 38 38" xml:space="preserve">
<g>
	<path fill-rule="evenodd" clip-rule="evenodd" fill="#2B2A28" d="M19,0c10.5,0,19,8.5,19,19c0,10.5-8.5,19-19,19
		C8.5,38,0,29.5,0,19C0,8.5,8.5,0,19,0z"/>
	<g>
		<g>
			<path fill-rule="evenodd" clip-rule="evenodd" fill="#7AB751" d="M26.3,26.8h-2.6v-5.4c0-0.6-0.5-1.1-1.1-1.1h-0.1v-8.6
				c0-0.6-0.5-1.1-1.1-1.1h-2.1V7.8c0-0.4-0.4-0.8-0.8-0.8c-0.4,0-0.8,0.3-0.8,0.8v1.1c-0.5-0.1-0.9,0.3-0.9,0.8v1h-1.2
				c-0.6,0-1.1,0.5-1.1,1.1v8.6h-0.1c-0.6,0-1.1,0.5-1.1,1.1v5.4h-2.6c-0.5,0-0.7,0.3-0.7,0.6c0,0.3,0.3,0.6,0.7,0.6h15.6
				c0.5,0,0.7-0.3,0.7-0.6C27,27.1,26.8,26.8,26.3,26.8z M22.8,27.1h-8.5v-5.7c0-0.1,0.1-0.1,0.1-0.1h1.1v-9.5
				c0-0.1,0.1-0.1,0.1-0.1h5.8c0.1,0,0.1,0.1,0.1,0.1v9.5h1.1c0.1,0,0.1,0.1,0.1,0.1V27.1z M26.3,27.5v-0.5c0,0,0,0,0,0L26.3,27.5z
				 M17.1,15.4h2.8c0.2,0,0.3-0.1,0.3-0.3c0-0.2-0.1-0.3-0.3-0.3h-2.8c-0.2,0-0.3,0.1-0.3,0.3C16.8,15.3,16.9,15.4,17.1,15.4z
				 M17.1,16.9h2.8c0.2,0,0.3-0.1,0.3-0.3c0-0.2-0.1-0.3-0.3-0.3h-2.8c-0.2,0-0.3,0.1-0.3,0.3C16.8,16.7,16.9,16.9,17.1,16.9z
				 M17.1,18.3h2.8c0.2,0,0.3-0.1,0.3-0.3c0-0.2-0.1-0.3-0.3-0.3h-2.8c-0.2,0-0.3,0.1-0.3,0.3C16.8,18.2,16.9,18.3,17.1,18.3z
				 M17.1,19.8h2.8c0.2,0,0.3-0.1,0.3-0.3c0-0.2-0.1-0.3-0.3-0.3h-2.8c-0.2,0-0.3,0.1-0.3,0.3C16.8,19.6,16.9,19.8,17.1,19.8z
				 M17.1,13.9h2.8c0.2,0,0.3-0.1,0.3-0.3c0-0.2-0.1-0.3-0.3-0.3h-2.8c-0.2,0-0.3,0.1-0.3,0.3C16.8,13.8,16.9,13.9,17.1,13.9z
				 M21.2,22.9h-5.3c-0.2,0-0.3,0.1-0.3,0.3c0,0.2,0.1,0.3,0.3,0.3h5.3c0.2,0,0.3-0.1,0.3-0.3C21.5,23,21.3,22.9,21.2,22.9z
				 M21.2,24.3h-5.3c-0.2,0-0.3,0.1-0.3,0.3c0,0.2,0.1,0.3,0.3,0.3h5.3c0.2,0,0.3-0.1,0.3-0.3C21.5,24.5,21.3,24.3,21.2,24.3z
				 M21.2,25.8h-5.3c-0.2,0-0.3,0.1-0.3,0.3c0,0.2,0.1,0.3,0.3,0.3h5.3c0.2,0,0.3-0.1,0.3-0.3C21.5,25.9,21.3,25.8,21.2,25.8z"/>
		</g>
	</g>
</g>
</svg>
