<?xml version="1.0" encoding="utf-8"?>
<!-- Generator: Adobe Illustrator 18.0.0, SVG Export Plug-In . SVG Version: 6.00 Build 0)  -->
<!DOCTYPE svg PUBLIC "-//W3C//DTD SVG 1.1//EN" "http://www.w3.org/Graphics/SVG/1.1/DTD/svg11.dtd">
<svg version="1.1" id="Слой_1" xmlns="http://www.w3.org/2000/svg" xmlns:xlink="http://www.w3.org/1999/xlink" x="0px" y="0px"
	 viewBox="0 0 38 38" enable-background="new 0 0 38 38" xml:space="preserve">
<g>
	<path fill-rule="evenodd" clip-rule="evenodd" fill="#2B2A28" d="M19,0c10.5,0,19,8.5,19,19c0,10.5-8.5,19-19,19
		C8.5,38,0,29.5,0,19C0,8.5,8.5,0,19,0z"/>
	<g>
		<g>
			<path fill="#85C5C9" d="M16.7,20.3v3.4c0,0.1,0.1,0.2,0.2,0.2h4.1c0.1,0,0.2-0.1,0.2-0.2v-3.4c0-0.1-0.1-0.2-0.2-0.2h-4.1
				C16.8,20.1,16.7,20.2,16.7,20.3z M28.8,17.6l-9.5-8c-0.2-0.2-0.5-0.2-0.7,0l-9.5,8C9,17.8,9,18,9,18.2c0.1,0.2,0.3,0.3,0.5,0.3
				h2.9V28c0,0.3,0.2,0.5,0.5,0.5h12.3c0.3,0,0.5-0.2,0.5-0.5v-9.5h2.9c0.2,0,0.4-0.1,0.5-0.3C29,18,29,17.8,28.8,17.6z M24.6,17.5
				v1h0v9H13.4v-10h-2.5l8.1-6.9l8.1,6.9H24.6z"/>
		</g>
	</g>
</g>
</svg>
