<?xml version="1.0" encoding="utf-8"?>
<!-- Generator: Adobe Illustrator 18.0.0, SVG Export Plug-In . SVG Version: 6.00 Build 0)  -->
<!DOCTYPE svg PUBLIC "-//W3C//DTD SVG 1.1//EN" "http://www.w3.org/Graphics/SVG/1.1/DTD/svg11.dtd">
<svg version="1.1" id="Слой_1" xmlns="http://www.w3.org/2000/svg" xmlns:xlink="http://www.w3.org/1999/xlink" x="0px" y="0px"
	 viewBox="0 0 38 38" enable-background="new 0 0 38 38" xml:space="preserve">
<g>
	<path fill-rule="evenodd" clip-rule="evenodd" fill="#2B2A28" d="M19,0c10.5,0,19,8.5,19,19c0,10.5-8.5,19-19,19
		C8.5,38,0,29.5,0,19C0,8.5,8.5,0,19,0z"/>
	<g>
		<g>
			<path fill="#A566A5" d="M25.8,23.9c0-0.3-0.2-0.6-0.6-0.6H14l0.8-2.1h10.5c0.3,0,0.5-0.2,0.6-0.5l0.5-6.6c0-0.3-0.2-0.6-0.5-0.6
				l-14.7-2.2l-2-1.2C8.9,9.9,8.6,10,8.4,10.3c-0.2,0.3-0.1,0.6,0.2,0.8l1.9,1.2l3.3,8.4l-1.2,3c-0.1,0.2,0,0.4,0.1,0.5
				c0.1,0.2,0.3,0.3,0.5,0.3h12.1C25.5,24.5,25.8,24.2,25.8,23.9z M11.8,12.6l13.3,2l-0.4,5.6h-10L11.8,12.6z M24.4,24.7
				c-0.9,0-1.6,0.7-1.6,1.7c0,0.9,0.7,1.7,1.6,1.7c0.9,0,1.6-0.7,1.6-1.7C26.1,25.4,25.3,24.7,24.4,24.7z M15.4,24.7
				c-0.9,0-1.6,0.7-1.6,1.7c0,0.9,0.7,1.7,1.6,1.7c0.9,0,1.6-0.7,1.6-1.7C17,25.4,16.3,24.7,15.4,24.7z"/>
		</g>
	</g>
</g>
</svg>
